<svg width="13" height="13" viewBox="0 0 13 13" fill="none" xmlns="http://www.w3.org/2000/svg">
<path fill-rule="evenodd" clip-rule="evenodd" d="M6.5 0C6.73932 0 6.93333 0.19401 6.93333 0.433333V6.06667L12.5667 6.06667C12.806 6.06667 13 6.26068 13 6.5C13 6.73932 12.806 6.93333 12.5667 6.93333L6.93333 6.93333V12.5667C6.93333 12.806 6.73932 13 6.5 13C6.26068 13 6.06667 12.806 6.06667 12.5667V6.93333L0.433333 6.93333C0.19401 6.93333 0 6.73932 0 6.5C2.58287e-08 6.26067 0.19401 6.06667 0.433333 6.06667L6.06667 6.06667V0.433333C6.06667 0.19401 6.26068 0 6.5 0Z" fill="currentColor" />
</svg>
