<svg width="14" height="14" viewBox="0 0 14 14" fill="none" xmlns="http://www.w3.org/2000/svg">
<path fill-rule="evenodd" clip-rule="evenodd" d="M4 0.5C4.27614 0.5 4.5 0.723858 4.5 1V3.5L9.5 3.5V1C9.5 0.723858 9.72386 0.5 10 0.5C10.2761 0.5 10.5 0.723858 10.5 1V3.5L13 3.5C13.2761 3.5 13.5 3.72386 13.5 4C13.5 4.27614 13.2761 4.5 13 4.5H10.5L10.5 9.5H13C13.2761 9.5 13.5 9.72386 13.5 10C13.5 10.2761 13.2761 10.5 13 10.5H10.5V13C10.5 13.2761 10.2761 13.5 10 13.5C9.72386 13.5 9.5 13.2761 9.5 13V10.5L4.5 10.5V13C4.5 13.2761 4.27614 13.5 4 13.5C3.72386 13.5 3.5 13.2761 3.5 13V10.5H1C0.723858 10.5 0.5 10.2761 0.5 10C0.5 9.72386 0.723858 9.5 1 9.5H3.5V4.5L1 4.5C0.723858 4.5 0.5 4.27614 0.5 4C0.5 3.72386 0.723858 3.5 1 3.5L3.5 3.5V1C3.5 0.723858 3.72386 0.5 4 0.5ZM4.5 4.5V9.5L9.5 9.5L9.5 4.5L4.5 4.5Z" fill="currentColor"/>
</svg>
