<svg width="26" height="18" viewBox="0 0 26 18" fill="none" xmlns="http://www.w3.org/2000/svg">
    <path fill-rule="evenodd" clip-rule="evenodd"
        d="M21.1769 0.247229C21.5927 -0.116321 22.2244 -0.0740047 22.588 0.341747C25.1964 3.32473 26.3596 7.61348 25.9028 11.1955C25.6731 12.9965 25.0239 14.6933 23.8588 15.9544C22.6733 17.2377 21.0157 18 18.9405 18C17.8363 18 16.894 17.69 16.1016 17.1283C15.3242 16.5772 14.7391 15.8184 14.2754 14.9872C13.4543 13.5151 12.9165 11.6211 12.4093 9.8347C12.356 9.64687 12.303 9.46023 12.25 9.27539C11.6707 7.25313 11.089 5.40848 10.1751 4.06144C9.30925 2.78519 8.17953 2.00001 6.39674 2.00001C4.84321 2.00001 3.1878 3.30666 2.41163 5.96951C1.64909 8.58556 1.83582 12.3278 3.91687 16.5586C4.16064 17.0542 3.9565 17.6536 3.46092 17.8973C2.96534 18.1411 2.36599 17.937 2.12223 17.4414C-0.1388 12.8447 -0.434525 8.58689 0.491533 5.40984C1.40395 2.27959 3.60817 1.38075e-05 6.39674 1.38075e-05C8.95601 1.38075e-05 10.6607 1.21484 11.8302 2.93858C12.9516 4.59155 13.6062 6.7469 14.1727 8.72463C14.2233 8.90118 14.2731 9.07625 14.3225 9.24968C14.8488 11.0972 15.3218 12.7575 16.022 14.0128C16.3951 14.6816 16.8013 15.1728 17.2582 15.4967C17.7003 15.8101 18.2355 16 18.9405 16C20.4837 16 21.6001 15.452 22.3897 14.5973C23.1997 13.7205 23.7264 12.4518 23.9189 10.9425C24.3064 7.9038 23.2985 4.19256 21.0824 1.65828C20.7189 1.24253 20.7612 0.61078 21.1769 0.247229Z"
        fill="currentColor" />
</svg>