<svg width="12" height="9" viewBox="0 0 12 9" fill="none" xmlns="http://www.w3.org/2000/svg">
<path fill-rule="evenodd" clip-rule="evenodd" d="M9.77402 0.114106C9.96591 -0.0536867 10.2575 -0.0341559 10.4253 0.157729C11.6292 1.53449 12.166 3.51391 11.9552 5.16713C11.8492 5.99836 11.5495 6.78151 11.0118 7.36357C10.4647 7.95583 9.69958 8.30768 8.74181 8.30768C8.23218 8.30768 7.79726 8.16458 7.43158 7.90537C7.07276 7.65102 6.80272 7.3008 6.5887 6.91714C6.20971 6.23774 5.96151 5.36357 5.72743 4.53908C5.70281 4.45239 5.67836 4.36625 5.65392 4.28094C5.38655 3.34759 5.11806 2.49621 4.69627 1.87451C4.29664 1.28547 3.77523 0.923081 2.9524 0.923081C2.23539 0.923081 1.47136 1.52615 1.11313 2.75515C0.761188 3.96256 0.847369 5.68974 1.80785 7.64243C1.92036 7.87116 1.82614 8.14778 1.59742 8.26029C1.36869 8.37279 1.09206 8.27858 0.979557 8.04985C-0.0639911 5.92829 -0.200479 3.96317 0.226931 2.49684C0.648045 1.05211 1.66538 6.37268e-06 2.9524 6.37268e-06C4.1336 6.37268e-06 4.92038 0.560693 5.46013 1.35627C5.97773 2.11917 6.27983 3.11394 6.5413 4.02674C6.56464 4.10823 6.58766 4.18903 6.61046 4.26907C6.85335 5.12177 7.07163 5.88807 7.39483 6.46745C7.56701 6.7761 7.75449 7.00281 7.96539 7.1523C8.16943 7.29693 8.41644 7.3846 8.74181 7.3846C9.45407 7.3846 9.96934 7.13168 10.3338 6.7372C10.7076 6.33253 10.9507 5.74699 11.0395 5.05037C11.2184 3.6479 10.7532 1.93502 9.7304 0.765359C9.56261 0.573474 9.58214 0.281898 9.77402 0.114106Z" fill="#BEBEBE"/>
</svg>
