<svg width="24" height="24" viewBox="0 0 24 24" fill="none" xmlns="http://www.w3.org/2000/svg">
<path fill-rule="evenodd" clip-rule="evenodd" d="M6.375 0H3C1.34315 0 0 1.34315 0 3V6.375H2V3C2 2.44772 2.44772 2 3 2H6.375V0ZM0 17.625V21C0 22.6569 1.34315 24 3 24H6.375V22H3C2.44772 22 2 21.5523 2 21V17.625H0ZM0 15.375H2V8.625H0V15.375ZM8.625 0V2H15.375V0H8.625ZM17.625 0V2H21C21.5523 2 22 2.44772 22 3V6.375H24V3C24 1.34315 22.6569 0 21 0H17.625ZM24 8.625H22V15.375H24V8.625ZM24 17.625H22V21C22 21.5523 21.5523 22 21 22H17.625V24H21C22.6569 24 24 22.6569 24 21V17.625ZM15.375 24V22H8.625V24H15.375Z" fill="currentColor"/>
</svg>
